<svg width="206" height="402" viewBox="0 0 206 402" fill="none" xmlns="http://www.w3.org/2000/svg">
<rect width="206" height="402" fill="white"/>
<g clip-path="url(#clip0_12_57)">
<g filter="url(#filter0_d_12_57)">
<path d="M175.887 104.387C189.777 131.74 176.538 166.355 146.317 181.702C116.096 197.048 80.3371 187.315 66.447 159.961C52.5568 132.608 125.324 82.5463 106.068 63.8794C86.8115 45.2125 161.997 77.0337 175.887 104.387Z" fill="#F6B9D3"/>
</g>
<g filter="url(#filter1_d_12_57)">
<mask id="mask0_12_57" style="mask-type:luminance" maskUnits="userSpaceOnUse" x="70" y="220" width="123" height="182">
<path d="M70.4811 220.699H192.303V401.831H70.4811V220.699Z" fill="white"/>
</mask>
<g mask="url(#mask0_12_57)">
<g opacity="0.68">
<path d="M70.4806 220.699L132.29 401.832L192.304 222.496L70.4806 220.699Z" fill="#EFB58A"/>
</g>
</g>
<path d="M120.286 384.199L129.323 391.746L126.432 402.168L120.286 384.199Z" fill="#EFB58A"/>
<path d="M117.274 377.011L141.132 357.245L149.085 332.088L112.936 363.355L117.274 377.011Z" fill="#EFB58A"/>
<path d="M105.072 340.354L163.607 289.32L172.944 262.726L100.404 326.697L105.072 340.354Z" fill="#EFB58A"/>
<path d="M92.4511 303.337L181.017 225.349L156.797 224.99L87.029 286.805L92.4511 303.337Z" fill="#EFB58A"/>
<path d="M107.634 221.396L75.4609 253.022L79.4374 265.96L128.239 223.193L107.634 221.396Z" fill="#EFB58A"/>
<path d="M96.4276 314.118L142.337 352.932L137.276 368.386L105.103 340.354L96.4276 314.118Z" fill="#EFB58A"/>
<path d="M73.292 247.272L154.267 317.353L149.567 332.088L81.2449 270.632L73.292 247.272Z" fill="#EFB58A"/>
<path d="M167.28 279.258L162.219 293.992L77.2684 220.677H102.212L167.28 279.258Z" fill="#EFB58A"/>
<path d="M137.276 221.755L174.871 256.257L179.932 241.881L158.243 221.036L137.276 221.755Z" fill="#EFB58A"/>
</g>
<g filter="url(#filter2_d_12_57)">
<path d="M188.911 214.663C190.65 210.055 191.585 205.166 191.585 200.1C191.585 172.493 163.933 150.111 129.814 150.111C95.6961 150.111 68.0474 172.493 68.0474 200.1C68.0474 205.166 68.9811 210.055 70.7194 214.663C64.2055 216.875 59.6306 222.084 59.6306 228.16C59.6306 236.244 67.7246 242.794 77.714 242.794C85.8686 242.794 92.7684 238.421 95.0148 232.415C97.2723 238.421 104.161 242.794 112.325 242.794C120.746 242.794 127.81 238.125 129.814 231.809C131.824 238.125 138.886 242.794 147.306 242.794C155.475 242.794 162.363 238.421 164.619 232.41C166.865 238.421 173.752 242.794 181.918 242.794C191.906 242.794 200 236.244 200 228.16C200 222.084 195.424 216.879 188.911 214.663Z" fill="#EE569E"/>
<path d="M185.905 183.708C187.087 179.03 187.441 174.081 186.852 168.973C183.62 141.131 153.641 119.045 119.885 119.649C86.1224 120.252 61.38 143.313 64.6033 171.154C65.1982 176.264 66.697 181.178 68.9525 185.794C62.7674 188.14 58.8481 193.473 59.558 199.601C60.5028 207.755 69.2773 214.218 79.1631 214.039C87.2404 213.898 93.5493 209.366 95.0687 203.267C98.006 209.285 105.334 213.573 113.407 213.428C121.746 213.28 128.189 208.447 129.435 202.041C132.16 208.375 139.69 212.962 148.025 212.81C156.113 212.668 162.413 208.136 163.944 202.036C166.87 208.056 174.196 212.345 182.274 212.201C192.154 212.024 199.394 205.275 198.454 197.123C197.744 190.994 192.61 185.827 185.905 183.708Z" fill="#E8063C"/>
<path d="M183.453 158.542C185.406 153.78 186.555 148.763 186.777 143.601C187.975 115.476 161.176 93.7372 126.905 95.0571C92.6359 96.3726 63.8902 120.245 62.6861 148.373C62.47 153.533 63.1961 158.482 64.7405 163.107C58.1005 165.611 53.2758 171.096 53.0113 177.287C52.6615 185.524 60.5056 191.886 70.5417 191.497C78.7352 191.182 85.848 186.461 88.3696 180.254C90.3769 186.288 97.1037 190.475 105.301 190.161C113.767 189.836 121.062 184.805 123.351 178.294C125.092 184.65 131.982 189.134 140.447 188.81C148.645 188.494 155.756 183.772 158.278 177.562C160.279 183.601 167.005 187.788 175.207 187.473C185.239 187.087 193.651 180.101 194.006 171.865C194.269 165.674 189.902 160.548 183.453 158.542Z" fill="#F6B9D3"/>
<path d="M160.766 226.399C160.766 229.074 158.708 231.243 156.167 231.243C153.627 231.243 151.568 229.074 151.568 226.399C151.568 223.724 153.627 221.555 156.167 221.555C158.708 221.555 160.766 223.724 160.766 226.399Z" fill="#E8063C"/>
<path d="M89.8093 200.241C89.8093 202.381 88.1915 204.116 86.1958 204.116C84.2001 204.116 82.5819 202.381 82.5819 200.241C82.5819 198.1 84.2001 196.366 86.1958 196.366C88.1915 196.366 89.8093 198.1 89.8093 200.241Z" fill="#E8063C"/>
<mask id="mask1_12_57" style="mask-type:luminance" maskUnits="userSpaceOnUse" x="101" y="192" width="8" height="7">
<path d="M101.307 192.491H108.534V198.302H101.307V192.491Z" fill="white"/>
</mask>
<g mask="url(#mask1_12_57)">
<g opacity="0.4">
<path d="M108.534 195.396C108.534 197.001 106.916 198.303 104.92 198.303C102.925 198.303 101.307 197.001 101.307 195.396C101.307 193.791 102.925 192.489 104.92 192.489C106.916 192.489 108.534 193.791 108.534 195.396Z" fill="#E8063C"/>
</g>
</g>
<path d="M81.6348 225.753L81.4813 227.037C81.3124 228.448 79.9996 229.466 78.5643 229.3L72.6913 228.621C71.256 228.455 70.2197 227.164 70.3886 225.753L70.5421 224.47C70.7111 223.059 72.0238 222.04 73.4591 222.206L79.3321 222.886C80.7678 223.052 81.8038 224.342 81.6348 225.753Z" fill="#E8063C"/>
<path d="M116.524 222.201H115.655C113.365 222.201 111.491 220.52 111.491 218.467V216.892C111.491 214.839 113.365 213.158 115.655 213.158H116.524C118.814 213.158 120.689 214.839 120.689 216.892V218.467C120.689 220.52 118.814 222.201 116.524 222.201Z" fill="#E8063C"/>
</g>
</g>
<defs>
<filter id="filter0_d_12_57" x="60.6714" y="58.2897" width="124.733" height="138.685" filterUnits="userSpaceOnUse" color-interpolation-filters="sRGB">
<feFlood flood-opacity="0" result="BackgroundImageFix"/>
<feColorMatrix in="SourceAlpha" type="matrix" values="0 0 0 0 0 0 0 0 0 0 0 0 0 0 0 0 0 0 127 0" result="hardAlpha"/>
<feOffset dy="4"/>
<feGaussianBlur stdDeviation="2"/>
<feComposite in2="hardAlpha" operator="out"/>
<feColorMatrix type="matrix" values="0 0 0 0 0 0 0 0 0 0 0 0 0 0 0 0 0 0 0.25 0"/>
<feBlend mode="normal" in2="BackgroundImageFix" result="effect1_dropShadow_12_57"/>
<feBlend mode="normal" in="SourceGraphic" in2="effect1_dropShadow_12_57" result="shape"/>
</filter>
<filter id="filter1_d_12_57" x="66.4811" y="220.677" width="129.822" height="189.491" filterUnits="userSpaceOnUse" color-interpolation-filters="sRGB">
<feFlood flood-opacity="0" result="BackgroundImageFix"/>
<feColorMatrix in="SourceAlpha" type="matrix" values="0 0 0 0 0 0 0 0 0 0 0 0 0 0 0 0 0 0 127 0" result="hardAlpha"/>
<feOffset dy="4"/>
<feGaussianBlur stdDeviation="2"/>
<feComposite in2="hardAlpha" operator="out"/>
<feColorMatrix type="matrix" values="0 0 0 0 0 0 0 0 0 0 0 0 0 0 0 0 0 0 0.25 0"/>
<feBlend mode="normal" in2="BackgroundImageFix" result="effect1_dropShadow_12_57"/>
<feBlend mode="normal" in="SourceGraphic" in2="effect1_dropShadow_12_57" result="shape"/>
</filter>
<filter id="filter2_d_12_57" x="49" y="95" width="155" height="155.794" filterUnits="userSpaceOnUse" color-interpolation-filters="sRGB">
<feFlood flood-opacity="0" result="BackgroundImageFix"/>
<feColorMatrix in="SourceAlpha" type="matrix" values="0 0 0 0 0 0 0 0 0 0 0 0 0 0 0 0 0 0 127 0" result="hardAlpha"/>
<feOffset dy="4"/>
<feGaussianBlur stdDeviation="2"/>
<feComposite in2="hardAlpha" operator="out"/>
<feColorMatrix type="matrix" values="0 0 0 0 0 0 0 0 0 0 0 0 0 0 0 0 0 0 0.25 0"/>
<feBlend mode="normal" in2="BackgroundImageFix" result="effect1_dropShadow_12_57"/>
<feBlend mode="normal" in="SourceGraphic" in2="effect1_dropShadow_12_57" result="shape"/>
</filter>
<clipPath id="clip0_12_57">
<rect width="206" height="402" fill="white"/>
</clipPath>
</defs>
</svg>
