<svg width="348" height="366" viewBox="0 0 348 366" fill="none" xmlns="http://www.w3.org/2000/svg">
<rect x="8" y="24" width="333" height="342" rx="59" fill="#408CFD"/>
<g clip-path="url(#clip0_0_1)">
<path fill-rule="evenodd" clip-rule="evenodd" d="M247.895 236.734L247.887 236.214C247.788 235.999 247.588 235.723 247.255 235.372C215.553 203.716 219.54 137.497 228.541 76.0335C228.904 73.5586 229.148 71.9041 227.54 71.6741C217.299 70.2087 183.174 77.0264 173.38 80.2988C170.831 81.1504 170.602 82.0529 170.559 84.0252C167.877 207.06 229.641 232.823 246.425 236.833C246.806 236.924 247.644 237.04 247.895 236.734ZM158.721 118.569C146.148 121.568 134.51 127.423 124.439 132.682C123.554 132.993 122.139 134.836 122.506 137.128C126.479 161.985 145.853 232.075 219.913 237.535C221.616 237.631 223.336 237.248 221.994 236.224C212.005 226.824 176.488 217.155 161.964 122.101C161.815 121.129 161.835 117.432 158.721 118.569ZM123.186 176.922C118.773 180.176 107.397 189.315 103.316 194.023C102.508 194.955 102.664 195.615 103.02 197.205C106.315 211.921 125.756 237.716 174.05 235.716C176.332 235.621 176.343 234.766 175.152 233.686C174.376 232.983 159.112 226.981 145.156 211.255C138.173 203.387 131.071 191.433 126.305 180.071C125.122 176.97 124.524 175.935 123.186 176.922Z" fill="#F5F5DC"/>
<path d="M175.51 454.78L118 252.174L228.71 251L175.51 454.78Z" fill="#D69559"/>
<rect x="152" y="252" width="13" height="34" fill="#F5F5DC"/>
<path d="M143.657 172.714L140.828 175.698C139.266 177.346 139.266 180.018 140.828 181.666L163.456 205.538C165.018 207.186 167.551 207.186 169.113 205.538L171.941 202.554C173.503 200.906 173.503 198.234 171.941 196.586L149.314 172.714C147.752 171.066 145.219 171.066 143.657 172.714Z" fill="#A7F9AF"/>
<path d="M114.657 122.074L111.828 125.058C110.266 126.706 110.266 129.378 111.828 131.026L134.456 154.898C136.018 156.546 138.551 156.546 140.113 154.898L142.941 151.914C144.503 150.266 144.503 147.594 142.941 145.946L120.314 122.074C118.752 120.426 116.219 120.426 114.657 122.074Z" fill="#F4C2C2"/>
<path d="M129.373 211.992L126.544 214.976C124.982 216.624 124.982 219.296 126.544 220.944L149.172 244.816C150.734 246.464 153.266 246.464 154.828 244.816L157.657 241.832C159.219 240.184 159.219 237.512 157.657 235.864L135.029 211.992C133.467 210.344 130.935 210.344 129.373 211.992Z" fill="#FFE179"/>
<path d="M183.657 122.074L180.828 125.058C179.266 126.706 179.266 129.378 180.828 131.026L203.456 154.898C205.018 156.546 207.551 156.546 209.113 154.898L211.941 151.914C213.503 150.266 213.503 147.594 211.941 145.946L189.314 122.074C187.752 120.426 185.219 120.426 183.657 122.074Z" fill="#F8D7DA"/>
<path d="M209.373 169.792L206.544 172.776C204.982 174.424 204.982 177.096 206.544 178.744L229.172 202.616C230.734 204.264 233.266 204.264 234.828 202.616L237.657 199.632C239.219 197.984 239.219 195.312 237.657 193.664L215.029 169.792C213.467 168.144 210.935 168.144 209.373 169.792Z" fill="#A0E7E5"/>
<path d="M201.657 83.039L198.828 86.023C197.266 87.671 197.266 90.343 198.828 91.991L221.456 115.863C223.018 117.511 225.551 117.511 227.113 115.863L229.941 112.879C231.503 111.231 231.503 108.559 229.941 106.911L207.314 83.039C205.752 81.391 203.219 81.391 201.657 83.039Z" fill="#FB8A8A"/>
<ellipse cx="158.5" cy="285" rx="6.5" ry="5" fill="#F5F5DC"/>
</g>
<defs>
<clipPath id="clip0_0_1">
<rect width="348" height="338" fill="white"/>
</clipPath>
</defs>
</svg>
